<svg xmlns="http://www.w3.org/2000/svg" width="58" height="58" viewBox="0 0 58 58" fill="none">
  <defs>
    <linearGradient id="pp-bg-free" x1="0" y1="0" x2="1" y2="1" gradientTransform="rotate(205 0.5 0.5)">
      <stop offset="21%" stop-color="#1C4B84"/>
      <stop offset="84%" stop-color="#15437B" stop-opacity="0"/>
    </linearGradient>
  </defs>
  <circle cx="29" cy="29" r="28.5" fill="url(#pp-bg-free)" stroke="#0B2C52"/>
  <g transform="translate(17 17)">
    <path fill="#FFFFFF" fill-rule="evenodd" d="M12 24Q12.29 24 12.59 23.99Q12.88 23.97 13.18 23.94Q13.47 23.91 13.76 23.87Q14.05 23.83 14.34 23.77Q14.63 23.71 14.92 23.64Q15.2 23.57 15.48 23.48Q15.77 23.4 16.04 23.3Q16.32 23.2 16.59 23.09Q16.86 22.97 17.13 22.85Q17.4 22.72 17.66 22.58Q17.92 22.44 18.17 22.29Q18.42 22.14 18.67 21.98Q18.91 21.81 19.15 21.64Q19.38 21.46 19.61 21.28Q19.84 21.09 20.06 20.89Q20.28 20.69 20.49 20.49Q20.69 20.28 20.89 20.06Q21.09 19.84 21.28 19.61Q21.46 19.38 21.64 19.15Q21.81 18.91 21.98 18.67Q22.14 18.42 22.29 18.17Q22.44 17.92 22.58 17.66Q22.72 17.4 22.85 17.13Q22.97 16.86 23.09 16.59Q23.2 16.32 23.3 16.04Q23.4 15.77 23.48 15.48Q23.57 15.2 23.64 14.92Q23.71 14.63 23.77 14.34Q23.83 14.05 23.87 13.76Q23.91 13.47 23.94 13.18Q23.97 12.88 23.99 12.59Q24 12.29 24 12Q24 11.71 23.99 11.41Q23.97 11.12 23.94 10.82Q23.91 10.53 23.87 10.24Q23.83 9.95 23.77 9.66Q23.71 9.37 23.64 9.08Q23.57 8.8 23.48 8.52Q23.4 8.23 23.3 7.96Q23.2 7.68 23.09 7.41Q22.97 7.14 22.85 6.87Q22.72 6.6 22.58 6.34Q22.44 6.08 22.29 5.83Q22.14 5.58 21.98 5.33Q21.81 5.09 21.64 4.85Q21.46 4.62 21.28 4.39Q21.09 4.16 20.89 3.94Q20.69 3.72 20.49 3.51Q20.28 3.31 20.06 3.11Q19.84 2.91 19.61 2.72Q19.38 2.54 19.15 2.36Q18.91 2.19 18.67 2.02Q18.42 1.86 18.17 1.71Q17.92 1.56 17.66 1.42Q17.4 1.28 17.13 1.15Q16.86 1.03 16.59 0.91Q16.32 0.8 16.04 0.7Q15.77 0.6 15.48 0.52Q15.2 0.43 14.92 0.36Q14.63 0.29 14.34 0.23Q14.05 0.17 13.76 0.13Q13.47 0.09 13.18 0.06Q12.88 0.03 12.59 0.01Q12.29 0 12 0Q11.71 0 11.41 0.01Q11.12 0.03 10.82 0.06Q10.53 0.09 10.24 0.13Q9.95 0.17 9.66 0.23Q9.37 0.29 9.08 0.36Q8.8 0.43 8.52 0.52Q8.23 0.6 7.96 0.7Q7.68 0.8 7.41 0.91Q7.14 1.03 6.87 1.15Q6.6 1.28 6.34 1.42Q6.08 1.56 5.83 1.71Q5.58 1.86 5.33 2.02Q5.09 2.19 4.85 2.36Q4.62 2.54 4.39 2.72Q4.16 2.91 3.94 3.11Q3.72 3.31 3.51 3.51Q3.31 3.72 3.11 3.94Q2.91 4.16 2.72 4.39Q2.54 4.62 2.36 4.85Q2.19 5.09 2.02 5.33Q1.86 5.58 1.71 5.83Q1.56 6.08 1.42 6.34Q1.28 6.6 1.15 6.87Q1.03 7.14 0.91 7.41Q0.8 7.68 0.7 7.96Q0.6 8.23 0.52 8.52Q0.43 8.8 0.36 9.08Q0.29 9.37 0.23 9.66Q0.17 9.95 0.13 10.24Q0.09 10.53 0.06 10.82Q0.03 11.12 0.01 11.41Q0 11.71 0 12Q0 12.29 0.01 12.59Q0.03 12.88 0.06 13.18Q0.09 13.47 0.13 13.76Q0.17 14.05 0.23 14.34Q0.29 14.63 0.36 14.92Q0.43 15.2 0.52 15.48Q0.6 15.77 0.7 16.04Q0.8 16.32 0.91 16.59Q1.03 16.86 1.15 17.13Q1.28 17.4 1.42 17.66Q1.56 17.92 1.71 18.17Q1.86 18.42 2.02 18.67Q2.19 18.91 2.36 19.15Q2.54 19.38 2.72 19.61Q2.91 19.84 3.11 20.06Q3.31 20.28 3.51 20.49Q3.72 20.69 3.94 20.89Q4.16 21.09 4.39 21.28Q4.62 21.46 4.85 21.64Q5.09 21.81 5.33 21.98Q5.58 22.14 5.83 22.29Q6.08 22.44 6.34 22.58Q6.6 22.72 6.87 22.85Q7.14 22.97 7.41 23.09Q7.68 23.2 7.96 23.3Q8.23 23.4 8.52 23.48Q8.8 23.57 9.08 23.64Q9.37 23.71 9.66 23.77Q9.95 23.83 10.24 23.87Q10.53 23.91 10.82 23.94Q11.12 23.97 11.41 23.99Q11.71 24 12 24ZM12.512 7.35C12.512 6.77 12.043 6.3 11.465 6.3C10.886 6.3 10.418 6.77 10.418 7.35L10.418 13.65C10.418 14.23 10.886 14.7 11.465 14.7L16.701 14.7C17.28 14.7 17.749 14.23 17.749 13.65C17.749 13.07 17.28 12.6 16.701 12.6L12.512 12.6L12.512 7.35Z"/>
  </g>
</svg>
